{"title":"Lady Antebellum - I Did With You (from The Best of Me)2014","uid":11065537,"size":80990389,"categoryP":"video","categoryS":"music_videos","magnet":"?xt=urn:btih:fb59569afa7476fae09e8f0de4c6aae9d31b98cb&amp;dn=Lady+Antebellum+-+I+Did+With+You+%28from+The+Best+of+Me%292014&amp;tr=udp%3A%2F%2Ftracker.openbittorrent.com%3A80&amp;tr=udp%3A%2F%2Fopen.demonii.com%3A1337&amp;tr=udp%3A%2F%2Ftracker.coppersurfer.tk%3A6969&amp;tr=udp%3A%2F%2Fexodus.desync.com%3A6969","seeders":0,"leechers":0,"uploader":"MeRaDil","files":-1,"time":1411223192,"description":"LADY ANTEBELLUM - I DID WITH YOU\n\n\nfrom the movie The Best of Me\n\n\nMPEG4 PROMO MUSIC VID\n\n &lt;a href=&quot;\nhttp://gifyu.com/images/lady1.jpg&quot; rel=&quot;nofollow&quot; target=&quot;_NEW&quot;&gt;\nhttp://gifyu.com/images/lady1.jpg&lt;/a&gt;\n &lt;a href=&quot;\nhttp://gifyu.com/images/lady2.jpg&quot; rel=&quot;nofollow&quot; target=&quot;_NEW&quot;&gt;\nhttp://gifyu.com/images/lady2.jpg&lt;/a&gt;\n &lt;a href=&quot;\nhttp://gifyu.com/images/LadyAntebellum.png&quot; rel=&quot;nofollow&quot; target=&quot;_NEW&quot;&gt;\nhttp://gifyu.com/images/LadyAntebellum.png&lt;/a&gt;\n\n\nGeneral\nFormat                                   : MPEG-4\nFormat profile                           : Base Media\nCodec ID                                 : isom\nFile size                                : 77.2 MiB\nDuration                                 : 3mn 26s\nOverall bit rate                         : 3 140 Kbps\nMovie name                               : I Did With You\nMovie name/More                          : Lady Antebellum\nAlbum                                    : OST.The Best of Me\nPerformer                                : Lady Antebellum\nGenre                                    : Country\nContentType                              : Music Video\nRecorded date                            : 2014\nISRC                                     : The Promo Bay\nCopyright                                : Lady Antebellum\nCover                                    : Yes\nComment                                  : from the movie The Best of Me\nMake                                     : MeRaDil\noday                                     : 19-09-2014  USA\naurl                                     : www.ladyantebellum.com\nlabl                                     : EMI Nashville\nrel.date                                 : USA . september 19 . 2014\nPart_ID                                  : I Did With You\n\nVideo\nID                                       : 1\nFormat                                   : AVC\nFormat/Info                              : Advanced Video Codec\nFormat profile                           : &lt;a class=&quot;__cf_email__&quot; href=&quot;/cdn-cgi/l/email-protection&quot; data-cfemail=&quot;632b0a040b232f574d53&quot;&gt;[email&amp;#160;protected]&lt;/a&gt;&lt;script data-cfhash='f9e31' type=&quot;text/javascript&quot;&gt;\n/* &lt;![CDATA[ */!function(){try{var t=&quot;currentScript&quot;in document?document.currentScript:function(){for(var t=document.getElementsByTagName(&quot;script&quot;),e=t.length;e--;)if(t[e].getAttribute(&quot;data-cfhash&quot;))return t[e]}();if(t&amp;&amp;t.previousSibling){var e,r,n,i,c=t.previousSibling,a=c.getAttribute(&quot;data-cfemail&quot;);if(a){for(e=&quot;&quot;,r=parseInt(a.substr(0,2),16),n=2;a.length-n;n+=2)i=parseInt(a.substr(n,2),16)^r,e+=String.fromCharCode(i);e=document.createTextNode(e),c.parentNode.replaceChild(e,c)}t.parentNode.removeChild(t);}}catch(u){}}()/* ]]&gt; */&lt;/script&gt;\nFormat settings, CABAC                   : Yes\nFormat settings, ReFrames                : 2 frames\nCodec ID                                 : avc1\nCodec ID/Info                            : Advanced Video Coding\nDuration                                 : 3mn 26s\nBit rate                                 : 2 876 Kbps\nWidth                                    : 1 920 pixels\nHeight                                   : 1 080 pixels\nDisplay aspect ratio                     : 16:9\nFrame rate mode                          : Variable\nFrame rate                               : 23.976 fps\nMinimum frame rate                       : 23.974 fps\nMaximum frame rate                       : 23.981 fps\nColor space                              : YUV\nChroma subsampling                       : 4:2:0\nBit depth                                : 8 bits\nScan type                                : Progressive\nBits/(Pixel*Frame)                       : 0.058\nStream size                              : 70.7 MiB (92%)\n\nAudio\nID                                       : 2\nFormat                                   : AAC\nFormat/Info                              : Advanced Audio Codec\nFormat profile                           : LC\nCodec ID                                 : 40\nDuration                                 : 3mn 26s\nBit rate mode                            : Constant\nBit rate                                 : 256 Kbps\nChannel(s)                               : 2 channels\nChannel positions                        : Front: L R\nSampling rate                            : 44.1 KHz\nCompression mode                         : Lossy\nStream size                              : 6.30 MiB (8%)\n &lt;a href=&quot;\nhttps://thepiratebay.se/user/MeRaDil&quot; rel=&quot;nofollow&quot; target=&quot;_NEW&quot;&gt;\nhttps://thepiratebay.se/user/MeRaDil&lt;/a&gt;\n\n:)","torrent":{"xt":"urn:btih:fb59569afa7476fae09e8f0de4c6aae9d31b98cb","amp;dn":"Lady+Antebellum+-+I+Did+With+You+%28from+The+Best+of+Me%292014","amp;tr":["udp%3A%2F%2Ftracker.openbittorrent.com%3A80","udp%3A%2F%2Fopen.demonii.com%3A1337","udp%3A%2F%2Ftracker.coppersurfer.tk%3A6969","udp%3A%2F%2Fexodus.desync.com%3A6969"],"infoHash":"fb59569afa7476fae09e8f0de4c6aae9d31b98cb","infoHashBuffer":{"type":"Buffer","data":[251,89,86,154,250,116,118,250,224,158,143,13,228,198,170,233,211,27,152,203]},"announce":[],"urlList":[]}}